{"accessors":{"accessor_0":{"bufferView":"bufferView_0","byteOffset":0,"byteStride":0,"componentType":5126,"count":49874,"min":[-603.3493041992188,4.898497104644775,-505.235595703125],"max":[551.0757446289062,300.6912841796875,527.8377075195312],"type":"VEC3"},"accessor_1":{"bufferView":"bufferView_0","byteOffset":598488,"byteStride":0,"componentType":5126,"count":49874,"min":[-1.663064956665039,-25.61711883544922],"max":[28.258380889892578,4.862804889678955],"type":"VEC2"},"accessor_2":{"bufferView":"bufferView_1","byteOffset":0,"byteStride":0,"componentType":5123,"count":50796,"min":[0],"max":[49873],"type":"SCALAR"}},"asset":{"generator":"obj2gltf","profile":{"api":"WebGL","version":"1.0"},"version":"1.0","premultipliedAlpha":true},"buffers":{"buffer":{"byteLength":1099072,"uri":"data:application/octet-stream;base64,","type":"arraybuffer"}},"bufferViews":{"bufferView_0":{"buffer":"buffer","byteLength":997480,"byteOffset":0,"target":34962},"bufferView_1":{"buffer":"buffer","byteLength":101592,"byteOffset":997480,"target":34963}},"extensionsUsed":[],"images":{},"materials":{"default":{"technique":"technique0","values":{"ambient":[0,0,0,1],"diffuse":[0,0,0,1],"emission":[0.5,0.5,0.5,1],"specular":[0,0,0,1],"shininess":0,"transparency":1}}},"meshes":{"Furniture_-_16932_poly_1":{"name":"Furniture_-_16932_poly_1","primitives":[{"attributes":{"POSITION":"accessor_0","TEXCOORD_0":"accessor_1"},"indices":"accessor_2","material":"default","mode":4}]}},"nodes":{"Furniture_-_16932_poly":{"name":"Furniture_-_16932_poly","meshes":["Furniture_-_16932_poly_1"],"children":[],"matrix":[1,0,0,0,0,1,0,0,0,0,1,0,0,0,0,1]}},"samplers":{},"scene":"scene","scenes":{"scene":{"nodes":["Furniture_-_16932_poly"]}},"textures":{},"animations":{},"cameras":{},"programs":{"program0":{"attributes":["a_position","a_texcoord_0"],"fragmentShader":"fragmentShader0","vertexShader":"vertexShader0"}},"shaders":{"vertexShader0":{"type":35633,"uri":"data:text/plain;base64,"},"fragmentShader0":{"type":35632,"uri":"data:text/plain;base64,"}},"skins":{},"techniques":{"technique0":{"attributes":{"a_position":"position","a_texcoord_0":"texcoord_0"},"parameters":{"modelViewMatrix":{"semantic":"MODELVIEW","type":35676},"projectionMatrix":{"semantic":"PROJECTION","type":35676},"ambient":{"type":35666},"diffuse":{"type":35666},"emission":{"type":35666},"specular":{"type":35666},"shininess":{"type":5126},"transparency":{"type":5126},"position":{"semantic":"POSITION","type":35665},"texcoord_0":{"semantic":"TEXCOORD_0","type":5126}},"program":"program0","states":{"enable":[2884,2929]},"uniforms":{"u_modelViewMatrix":"modelViewMatrix","u_projectionMatrix":"projectionMatrix","u_ambient":"ambient","u_diffuse":"diffuse","u_emission":"emission","u_specular":"specular","u_shininess":"shininess","u_transparency":"transparency"}}}}
